<svg id="Layer_1" data-name="Layer 1" xmlns="http://www.w3.org/2000/svg" viewBox="0 0 565.55 445.32"><defs><style>.cls-1{fill:#fff;}.cls-2{fill:none;stroke:#000;stroke-linecap:round;stroke-width:15px;}</style></defs><title>favicon</title><g id="MKV7Xf.tif"><path class="cls-1" d="M340.58,497.81a1.88,1.88,0,0,0,.28-3.43h0c-22.9-11-45.81-22-68.78-32.8a5.15,5.15,0,0,0-4.47.41c-3.65,2.88-7.07,6.06-10.71,9.33a1.89,1.89,0,0,0-.17,2.64c8.81,10.11,17.19,19.82,25.68,29.44,9.89,11.2,10,11.21,24.22,6.32C317.69,505.9,328.74,502,340.58,497.81Z" transform="translate(-213.47 -277.34)"/><path d="M368.5,536.65l-.24,0c-10.14-1.31-20.32-2.42-30.42-4-11.15-1.75-22.24-3.89-33.33-6a16.22,16.22,0,0,1-2.12-.57v-5.1L444.88,471.4a1.88,1.88,0,0,0,.83-3l-70.47-84.59a1.88,1.88,0,0,1,.08-2.5c5.21-5.48,10.33-11,15.76-16.22.91-.87,3.7-.48,5.3.15q39.9,15.58,79.7,31.42,41.69,16.51,83.33,33.17a13.49,13.49,0,0,0,10,.2c48.21-16.07,96.34-32.4,144.78-47.78,12.35-3.92,25.78-3,38.23,1.29,10,3.43,14.32,13,7.92,21.92-11,15.25-26.28,24.79-44,30.61q-130.2,42.8-260.32,85.81c-14.52,4.79-29,9.76-43.48,14.65a1.76,1.76,0,0,1-.6.1Z" transform="translate(-213.47 -277.34)"/><path d="M340.86,494.38a1.88,1.88,0,0,1-.28,3.43c-11.84,4.16-22.89,8.09-34,11.9-14.26,4.89-14.33,4.88-24.22-6.32-8.49-9.62-16.87-19.33-25.68-29.44a1.89,1.89,0,0,1,.17-2.64c3.64-3.27,7.06-6.45,10.71-9.33a5.15,5.15,0,0,1,4.47-.41c23,10.83,45.88,21.82,68.78,32.8Z" transform="translate(-213.47 -277.34)"/></g><path d="M779,450.63,335,623.05a10,10,0,0,1-7.24-18.65l.4-.14Z" transform="translate(-213.47 -277.34)"/><path class="cls-2" d="M648.47,534.91C631.79,637.14,543.08,715.16,436.13,715.16,317.3,715.16,221,618.83,221,500S317.3,284.84,436.13,284.84a214.63,214.63,0,0,1,160.4,71.75" transform="translate(-213.47 -277.34)"/></svg>